<svg width="536" height="550" viewBox="0 0 536 550" fill="none" xmlns="http://www.w3.org/2000/svg">
<path d="M9.51063 526C8.87063 526 8.29463 525.776 7.78263 525.328C7.33463 524.816 7.11063 524.24 7.11063 523.6V461.2C7.11063 460.496 7.33463 459.92 7.78263 459.472C8.29463 459.024 8.87063 458.8 9.51063 458.8H19.8786C20.9666 458.8 21.7666 459.088 22.2786 459.664C22.7906 460.176 23.1106 460.592 23.2386 460.912L40.1346 491.152L57.0306 460.912C57.2226 460.592 57.5426 460.176 57.9906 459.664C58.5026 459.088 59.3026 458.8 60.3906 458.8H70.6626C71.3666 458.8 71.9426 459.024 72.3906 459.472C72.9026 459.92 73.1586 460.496 73.1586 461.2V523.6C73.1586 524.24 72.9026 524.816 72.3906 525.328C71.9426 525.776 71.3666 526 70.6626 526H59.2386C58.5346 526 57.9266 525.776 57.4146 525.328C56.9666 524.816 56.7426 524.24 56.7426 523.6V487.6L45.9906 507.664C45.6706 508.24 45.2546 508.752 44.7426 509.2C44.2306 509.648 43.5266 509.872 42.6306 509.872H37.6386C36.7426 509.872 36.0386 509.648 35.5266 509.2C35.0146 508.752 34.5986 508.24 34.2786 507.664L23.4306 487.6V523.6C23.4306 524.24 23.2066 524.816 22.7586 525.328C22.3106 525.776 21.7346 526 21.0306 526H9.51063ZM89.0106 526C88.3066 526 87.7306 525.776 87.2826 525.328C86.8346 524.816 86.6106 524.24 86.6106 523.6V461.2C86.6106 460.496 86.8346 459.92 87.2826 459.472C87.7306 459.024 88.3066 458.8 89.0106 458.8H133.843C134.547 458.8 135.123 459.024 135.571 459.472C136.019 459.92 136.243 460.496 136.243 461.2V470.224C136.243 470.928 136.019 471.504 135.571 471.952C135.123 472.4 134.547 472.624 133.843 472.624H103.219V485.584H131.731C132.435 485.584 133.011 485.84 133.459 486.352C133.907 486.8 134.131 487.376 134.131 488.08V496.432C134.131 497.072 133.907 497.648 133.459 498.16C133.011 498.608 132.435 498.832 131.731 498.832H103.219V512.176H134.611C135.315 512.176 135.891 512.4 136.339 512.848C136.787 513.296 137.011 513.872 137.011 514.576V523.6C137.011 524.24 136.787 524.816 136.339 525.328C135.891 525.776 135.315 526 134.611 526H89.0106ZM150.323 526C149.683 526 149.107 525.776 148.595 525.328C148.147 524.816 147.923 524.24 147.923 523.6V461.2C147.923 460.496 148.147 459.92 148.595 459.472C149.107 459.024 149.683 458.8 150.323 458.8H160.691C161.779 458.8 162.579 459.088 163.091 459.664C163.603 460.176 163.923 460.592 164.051 460.912L180.947 491.152L197.843 460.912C198.035 460.592 198.355 460.176 198.803 459.664C199.315 459.088 200.115 458.8 201.203 458.8H211.475C212.179 458.8 212.755 459.024 213.203 459.472C213.715 459.92 213.971 460.496 213.971 461.2V523.6C213.971 524.24 213.715 524.816 213.203 525.328C212.755 525.776 212.179 526 211.475 526H200.051C199.347 526 198.739 525.776 198.227 525.328C197.779 524.816 197.555 524.24 197.555 523.6V487.6L186.803 507.664C186.483 508.24 186.067 508.752 185.555 509.2C185.043 509.648 184.339 509.872 183.443 509.872H178.451C177.555 509.872 176.851 509.648 176.339 509.2C175.827 508.752 175.411 508.24 175.091 507.664L164.243 487.6V523.6C164.243 524.24 164.019 524.816 163.571 525.328C163.123 525.776 162.547 526 161.843 526H150.323ZM254.879 526.96C248.991 526.96 243.871 526 239.519 524.08C235.167 522.16 231.775 519.28 229.343 515.44C226.911 511.536 225.567 506.672 225.311 500.848C225.247 498.096 225.215 495.344 225.215 492.592C225.215 489.776 225.247 486.992 225.311 484.24C225.567 478.48 226.911 473.648 229.343 469.744C231.839 465.776 235.263 462.8 239.615 460.816C244.031 458.832 249.119 457.84 254.879 457.84C260.703 457.84 265.791 458.832 270.143 460.816C274.495 462.8 277.919 465.776 280.415 469.744C282.911 473.648 284.255 478.48 284.447 484.24C284.575 486.992 284.639 489.776 284.639 492.592C284.639 495.344 284.575 498.096 284.447 500.848C284.255 506.672 282.911 511.536 280.415 515.44C277.983 519.28 274.591 522.16 270.239 524.08C265.887 526 260.767 526.96 254.879 526.96ZM254.879 513.136C258.271 513.136 261.023 512.112 263.135 510.064C265.311 508.016 266.463 504.752 266.591 500.272C266.719 497.456 266.783 494.8 266.783 492.304C266.783 489.808 266.719 487.216 266.591 484.528C266.463 481.52 265.887 479.088 264.863 477.232C263.903 475.312 262.559 473.904 260.831 473.008C259.103 472.112 257.119 471.664 254.879 471.664C252.703 471.664 250.751 472.112 249.023 473.008C247.295 473.904 245.919 475.312 244.895 477.232C243.871 479.088 243.295 481.52 243.167 484.528C243.103 487.216 243.071 489.808 243.071 492.304C243.071 494.8 243.103 497.456 243.167 500.272C243.359 504.752 244.511 508.016 246.623 510.064C248.799 512.112 251.551 513.136 254.879 513.136ZM298.167 526C297.463 526 296.887 525.776 296.439 525.328C295.991 524.816 295.767 524.24 295.767 523.6V461.2C295.767 460.496 295.991 459.92 296.439 459.472C296.887 459.024 297.463 458.8 298.167 458.8H324.279C332.599 458.8 339.127 460.72 343.863 464.56C348.599 468.336 350.967 473.712 350.967 480.688C350.967 485.232 349.879 489.072 347.703 492.208C345.527 495.344 342.647 497.712 339.063 499.312L352.215 522.928C352.407 523.312 352.503 523.664 352.503 523.984C352.503 524.496 352.279 524.976 351.831 525.424C351.447 525.808 350.999 526 350.487 526H337.719C336.503 526 335.607 525.712 335.031 525.136C334.455 524.496 334.039 523.92 333.783 523.408L322.839 502.288H313.047V523.6C313.047 524.24 312.791 524.816 312.279 525.328C311.831 525.776 311.255 526 310.551 526H298.167ZM313.047 488.656H324.087C327.095 488.656 329.335 487.92 330.807 486.448C332.343 484.976 333.111 482.992 333.111 480.496C333.111 478 332.375 475.984 330.903 474.448C329.495 472.912 327.223 472.144 324.087 472.144H313.047V488.656ZM364.542 526C363.838 526 363.262 525.776 362.814 525.328C362.366 524.816 362.142 524.24 362.142 523.6V461.2C362.142 460.496 362.366 459.92 362.814 459.472C363.262 459.024 363.838 458.8 364.542 458.8H377.406C378.11 458.8 378.686 459.024 379.134 459.472C379.646 459.92 379.902 460.496 379.902 461.2V523.6C379.902 524.24 379.646 524.816 379.134 525.328C378.686 525.776 378.11 526 377.406 526H364.542ZM421.491 526.96C415.667 526.96 410.579 526.032 406.227 524.176C401.939 522.256 398.611 519.344 396.243 515.44C393.875 511.472 392.691 506.448 392.691 500.368V461.2C392.691 460.496 392.915 459.92 393.363 459.472C393.811 459.024 394.387 458.8 395.091 458.8H407.475C408.179 458.8 408.755 459.024 409.203 459.472C409.715 459.92 409.971 460.496 409.971 461.2V500.272C409.971 504.432 410.963 507.568 412.947 509.68C414.931 511.728 417.747 512.752 421.395 512.752C424.979 512.752 427.763 511.728 429.747 509.68C431.795 507.568 432.819 504.432 432.819 500.272V461.2C432.819 460.496 433.043 459.92 433.491 459.472C434.003 459.024 434.579 458.8 435.219 458.8H447.699C448.339 458.8 448.883 459.024 449.331 459.472C449.843 459.92 450.099 460.496 450.099 461.2V500.368C450.099 506.448 448.915 511.472 446.547 515.44C444.179 519.344 440.851 522.256 436.563 524.176C432.275 526.032 427.251 526.96 421.491 526.96ZM465.229 526C464.589 526 464.013 525.776 463.501 525.328C463.053 524.816 462.829 524.24 462.829 523.6V461.2C462.829 460.496 463.053 459.92 463.501 459.472C464.013 459.024 464.589 458.8 465.229 458.8H475.597C476.685 458.8 477.485 459.088 477.997 459.664C478.509 460.176 478.829 460.592 478.957 460.912L495.853 491.152L512.749 460.912C512.941 460.592 513.261 460.176 513.709 459.664C514.221 459.088 515.021 458.8 516.109 458.8H526.381C527.085 458.8 527.661 459.024 528.109 459.472C528.621 459.92 528.877 460.496 528.877 461.2V523.6C528.877 524.24 528.621 524.816 528.109 525.328C527.661 525.776 527.085 526 526.381 526H514.957C514.253 526 513.645 525.776 513.133 525.328C512.685 524.816 512.461 524.24 512.461 523.6V487.6L501.709 507.664C501.389 508.24 500.973 508.752 500.461 509.2C499.949 509.648 499.245 509.872 498.349 509.872H493.357C492.461 509.872 491.757 509.648 491.245 509.2C490.733 508.752 490.317 508.24 489.997 507.664L479.149 487.6V523.6C479.149 524.24 478.925 524.816 478.477 525.328C478.029 525.776 477.453 526 476.749 526H465.229Z" fill="#00698C"/>
<path d="M160.5 10.7994C156.61 7.82461 149.781 4.42111 145.5 6.79939C136.5 11.7994 135.887 21.7599 136.5 30.7994C138.5 60.2994 145.5 116.799 145.5 116.799C145.5 116.799 116 152.693 116 186.799C116 209.799 124.5 217.299 124.5 217.299C124.5 217.299 110.5 238.299 100.5 276.299C89.2975 318.869 86 423.299 86 423.299H450.5C450.5 423.299 447.203 318.869 436 276.299C426 238.299 412 217.299 412 217.299C412 217.299 420.5 209.799 420.5 186.799C420.5 152.693 391 116.799 391 116.799C391 116.799 398 60.2994 400 30.7994C400.613 21.7599 400 11.7994 391 6.79939C386.719 4.42111 379.89 7.82461 376 10.7994C357.738 24.7647 334.346 47.1929 322.539 58.7994C322.539 58.7994 290.051 45.7994 268.25 45.7994C246.449 45.7994 213.961 58.7994 213.961 58.7994C202.154 47.1929 178.762 24.7647 160.5 10.7994Z" fill="#E6F1F3"/>
<path d="M258.5 205.299C261.167 209.299 266.6 217.599 267 218.799L279 205.299L268.5 215.299L258.5 205.299Z" stroke="#F3B6BC" stroke-width="9" stroke-linecap="round" stroke-linejoin="round"/>
<path d="M221.5 66.2994C221.5 66.2994 218.64 63.3993 213.961 58.7994M315 66.2994C315 66.2994 317.86 63.3993 322.539 58.7994M213.961 58.7994C202.154 47.1929 178.762 24.7647 160.5 10.7994C156.61 7.82461 149.781 4.42111 145.5 6.79939C136.5 11.7994 135.887 21.7599 136.5 30.7994C138.5 60.2994 145.5 116.799 145.5 116.799C145.5 116.799 116 152.693 116 186.799C116 209.799 124.5 217.299 124.5 217.299C124.5 217.299 110.5 238.299 100.5 276.299C89.2975 318.869 86 423.299 86 423.299H450.5C450.5 423.299 447.203 318.869 436 276.299C426 238.299 412 217.299 412 217.299C412 217.299 420.5 209.799 420.5 186.799C420.5 152.693 391 116.799 391 116.799C391 116.799 398 60.2994 400 30.7994C400.613 21.7599 400 11.7994 391 6.79939C386.719 4.42111 379.89 7.82461 376 10.7994C357.738 24.7647 334.346 47.1929 322.539 58.7994M213.961 58.7994C213.961 58.7994 246.449 45.7994 268.25 45.7994C290.051 45.7994 322.539 58.7994 322.539 58.7994" stroke="#D7E0DF" stroke-width="6" stroke-linecap="round"/>
<path d="M120.624 225.982C120.838 226.232 121.062 226.487 121.297 226.747C124.984 230.826 131.25 235.99 141.783 241.086C162.797 251.253 200.958 261.23 270.177 261.758C339.395 262.286 376.524 252.321 396.502 241.813C406.528 236.54 412.274 231.108 415.547 226.769C415.555 226.759 415.562 226.749 415.569 226.74L420.857 237.424C419.647 238.564 417.819 240.18 415.308 242.118C410.036 246.19 401.746 251.695 389.85 257.227C366.073 268.284 327.78 279.5 270.207 279.5C212.639 279.5 173.144 268.234 148.152 257.096C135.649 251.524 126.753 245.975 121.023 241.86C118.297 239.903 116.287 238.27 114.944 237.112L120.624 225.982Z" fill="#00698C" stroke="#00698C" stroke-width="8" stroke-linejoin="round"/>
<rect x="249" y="289.176" width="38.2353" height="58.8235" rx="19.1176" fill="#00698C"/>
<path d="M274.294 274.471C274.294 277.214 272.586 279.559 270.176 280.5C269.447 280.785 268.653 280.941 267.823 280.941C266.993 280.941 266.199 280.785 265.47 280.5C263.06 279.559 261.353 277.214 261.353 274.471C261.353 270.897 264.25 268 267.823 268C271.397 268 274.294 270.897 274.294 274.471Z" fill="#D7E0DF"/>
<path d="M267.823 280.941C266.993 280.941 266.199 280.785 265.47 280.5V289.471H270.176V280.5C269.447 280.785 268.653 280.941 267.823 280.941Z" fill="#D7E0DF"/>
<path d="M260.765 305.353C260.765 301.292 264.057 298 268.118 298C272.179 298 275.471 301.292 275.471 305.353V307.412V313V318.294V320.059C275.471 324.12 272.179 327.412 268.118 327.412C264.057 327.412 260.765 324.12 260.765 320.059V318.294V313V307.412V305.353Z" fill="#D7E0DF"/>
<path d="M260.765 307.412V305.353C260.765 301.292 264.057 298 268.118 298V298C272.179 298 275.471 301.292 275.471 305.353V307.412M260.765 307.412H264.588M260.765 307.412V313M275.471 307.412H271.647M275.471 307.412V313M260.765 313H266.647M260.765 313V318.294M275.471 313H271.059M275.471 313V318.294M260.765 318.294V320.059C260.765 324.12 264.057 327.412 268.118 327.412V327.412C272.179 327.412 275.471 324.12 275.471 320.059V318.294M260.765 318.294H264.882M275.471 318.294H271.647" stroke="#00698C" stroke-width="1.76471" stroke-linecap="round"/>
<path d="M257.235 319.765C257.235 319.765 257.235 330.739 267.824 330.938M278.706 319.765C278.706 319.765 278.706 330.941 268.118 330.941C268.019 330.941 267.921 330.94 267.824 330.938M267.824 330.938V336.824M267.824 336.824H263.412M267.824 336.824H272.235" stroke="#D7E0DF" stroke-width="1.76471" stroke-linecap="round"/>
<path d="M258 146.5C258 180.466 230.466 208 196.5 208C162.534 208 135 180.466 135 146.5C135 112.534 162.534 85 196.5 85C226.359 85 251.248 106.279 256.83 134.5C257.598 138.381 258 142.394 258 146.5Z" fill="#E6F1F3"/>
<path d="M402 146.5C402 180.466 374.466 208 340.5 208C306.534 208 279 180.466 279 146.5C279 142.394 279.402 138.381 280.17 134.5C285.752 106.279 310.641 85 340.5 85C374.466 85 402 112.534 402 146.5Z" fill="#E6F1F3"/>
<path d="M256.83 134.5C251.248 106.279 226.359 85 196.5 85C162.534 85 135 112.534 135 146.5C135 180.466 162.534 208 196.5 208C230.466 208 258 180.466 258 146.5C258 142.394 257.598 138.381 256.83 134.5ZM256.83 134.5C256.83 134.5 263.839 132 268.5 132C273.161 132 280.17 134.5 280.17 134.5M280.17 134.5C279.402 138.381 279 142.394 279 146.5C279 180.466 306.534 208 340.5 208C374.466 208 402 180.466 402 146.5C402 112.534 374.466 85 340.5 85C310.641 85 285.752 106.279 280.17 134.5Z" stroke="#F3B6BC" stroke-width="6"/>
</svg>
